<!-- icon666.com - MILLIONS vector ICONS FREE --><svg viewBox="0 0 512 512" xmlns="http://www.w3.org/2000/svg"><path d="m512 256c0 141.386719-114.613281 256-256 256s-256-114.613281-256-256 114.613281-256 256-256 256 114.613281 256 256zm0 0" fill="#3440db"></path><path d="m505.429688 313.867188-59.96875-59.96875-373.082032 77.351562 180.710938 180.714844c.972656.007812 1.9375.035156 2.910156.035156 121.484375 0 223.203125-84.617188 249.429688-198.132812zm0 0" fill="#1c259e"></path><path d="m240.558594 140.210938s75.113281 63.679687 106.136718 76.742187c31.023438 13.0625 107.765626 22.859375 107.765626 53.882813v60.414062h-382.082032s-22.859375-81.640625 19.59375-186.144531c0 0 80.007813 58.785156 148.585938-4.894531zm0 0" fill="#fff"></path><path d="m454.460938 270.835938c0-31.023438-76.742188-40.820313-107.765626-53.886719-22.246093-9.363281-67.15625-44.753907-90.789062-64.03125v178.332031h198.554688s0-29.390625 0-60.414062zm0 0" fill="#e9edf5"></path><path d="m74.738281 199.617188c-9.164062 40.03125-9.441406 73.984374-7.59375 97.382812h104.679688c-12.085938-60.703125-66.625-87.167969-97.085938-97.382812zm0 0" fill="#ff9500"></path><path d="m72.378906 331.25h382.082032s0-19.820312 0-44.085938h-387.925782c1.234375 27.609376 5.84375 44.085938 5.84375 44.085938zm0 0" fill="#e0aea2"></path><path d="m454.460938 287.164062h-198.554688v44.085938h198.554688s0-19.820312 0-44.085938zm0 0" fill="#d79b8c"></path><path d="m345.476562 236.429688c11.0625 2.910156 21.1875-3.832032 28.214844-10.734376-10.414062-2.9375-19.902344-5.757812-26.996094-8.746093-31.023437-13.0625-106.136718-76.742188-106.136718-76.742188-10.792969 10.023438-21.871094 17.007813-32.875 21.671875 40.828125 23.726563 122.410156 70.503906 137.792968 74.550782zm0 0" fill="#e0aea2"></path><path d="m346.695312 216.953125c-22.246093-9.367187-67.15625-44.757813-90.789062-64.035156v36.667969c38.046875 21.585937 79.113281 44.09375 89.570312 46.84375 11.0625 2.914062 21.1875-3.832032 28.21875-10.734376-10.414062-2.9375-19.90625-5.757812-27-8.742187zm0 0" fill="#d79b8c"></path><g fill="#ff9500"><path d="m239.664062 194.332031c0 6.261719-5.070312 11.332031-11.332031 11.332031-6.257812 0-11.332031-5.070312-11.332031-11.332031 0-6.257812 5.074219-11.332031 11.332031-11.332031 6.261719 0 11.332031 5.074219 11.332031 11.332031zm0 0"></path><path d="m275 217c0 6.257812-5.074219 11.332031-11.332031 11.332031-6.261719 0-11.332031-5.074219-11.332031-11.332031s5.070312-11.332031 11.332031-11.332031c6.257812 0 11.332031 5.074219 11.332031 11.332031zm0 0"></path><path d="m263.667969 205.667969c-3.007813 0-5.734375 1.179687-7.761719 3.089843v16.484376c2.027344 1.910156 4.753906 3.089843 7.761719 3.089843 6.257812 0 11.332031-5.074219 11.332031-11.332031s-5.074219-11.332031-11.332031-11.332031zm0 0"></path><path d="m314.332031 235c0 6.257812-5.074219 11.332031-11.332031 11.332031s-11.332031-5.074219-11.332031-11.332031 5.074219-11.332031 11.332031-11.332031 11.332031 5.074219 11.332031 11.332031zm0 0"></path></g></svg>